<svg width="32" height="32" viewBox="0 0 2971 972" fill="none" xmlns="http://www.w3.org/2000/svg">
<g clip-path="url(#clip0_595_14)">
<path d="M727.032 100.746C736.561 100.746 744.261 108.446 744.261 117.975V392.63V409.692C744.482 443.54 744.759 485.807 738.832 530.623C731.963 582.862 718.335 625.351 697.395 660.527C629.091 775.032 506.388 858.957 391.219 870.147C390.665 870.203 390.111 870.258 389.557 870.258C389.003 870.258 388.449 870.258 387.895 870.147C272.615 858.847 149.912 774.976 81.7193 660.527C60.6686 625.351 47.1519 582.806 40.2827 530.623C34.4107 485.807 34.6877 443.595 34.9647 409.692V392.63L35.0201 117.975C35.0201 108.446 42.7202 100.746 52.2484 100.746H727.032ZM727.032 66.4006H52.193C23.7746 66.4006 0.618893 89.5563 0.618893 117.975V409.526C0.286514 442.376 -0.0458646 487.524 6.15854 535.054C13.6925 592.057 28.7049 638.812 52.1376 678.088C88.1453 738.47 138.445 791.762 197.664 832.312C257.437 873.194 321.863 898.067 384.073 904.216C385.846 904.438 387.674 904.549 389.502 904.549C391.33 904.549 393.103 904.438 394.931 904.216C457.086 898.067 521.512 873.25 581.284 832.367C640.503 791.817 690.859 738.47 726.922 678.088C750.41 638.757 765.422 592.002 772.901 535.11C779.105 488.023 778.828 444.592 778.606 409.637V392.519V118.03C778.606 89.5563 755.451 66.456 727.032 66.456V66.4006Z" fill="#0156FC"/>
<path d="M680.16 448.487C685.201 452.309 692.403 448.708 692.403 442.393L692.237 407.66V160.148C692.292 155.883 688.858 152.448 684.592 152.448H94.62C90.3545 152.448 86.9199 155.883 86.9199 160.148V312.378C86.9199 318.915 88.4156 325.341 91.3516 331.157C94.2876 336.974 98.4978 342.07 103.76 345.948L547.541 677.828C551.419 680.709 551.696 686.304 548.151 689.628C539.952 697.383 531.31 704.64 522.336 711.509C519.566 713.614 515.799 713.614 513.085 711.565L99.1625 401.4C94.1214 397.633 86.9199 401.178 86.9199 407.549C86.9199 460.73 82.2112 559.945 126.916 635.948C176.828 720.871 262.527 787.901 350.718 809.616C363.459 812.718 376.2 814.934 388.941 816.098C389.44 816.153 389.938 816.153 390.382 816.098C448.105 810.89 506.825 784.522 557.236 744.692C569.866 734.665 581.998 723.863 593.52 712.285C616.233 689.406 636.065 663.813 652.407 636.059C667.198 610.965 676.56 583.322 682.487 555.679C683.816 549.696 684.924 543.658 685.922 537.564C688.525 521.721 682.099 505.711 669.303 496.128L293.549 215.157C287.677 210.725 290.723 201.363 298.202 201.363H347.948C349.61 201.363 351.216 201.917 352.601 202.915L680.216 448.542L680.16 448.487Z" fill="#0156FC"/>
<path d="M988.337 578.927C988.337 627.288 1030.27 669.168 1107.61 669.168C1184.94 669.168 1220.45 633.714 1220.45 588.566C1220.45 549.235 1194.69 524.085 1143.11 514.446L1056.09 498.326C983.85 484.809 946.457 446.751 946.457 382.27C946.457 308.15 1005.12 253.307 1101.18 253.307C1204.33 253.307 1268.81 314.576 1268.81 391.909H1217.23C1217.23 343.548 1175.3 301.668 1101.18 301.668C1033.48 301.668 998.031 336.457 998.031 382.27C998.031 418.388 1020.58 443.538 1072.15 453.177L1143.06 466.085C1233.3 482.205 1272.02 520.872 1272.02 588.566C1272.02 662.687 1214.02 717.529 1107.61 717.529C1001.19 717.529 936.763 653.048 936.763 578.927H988.337Z" fill="white"/>
<path d="M1591.18 620.869C1568.63 682.747 1520.27 717.591 1452.58 717.591C1365.55 717.591 1297.86 649.897 1297.86 549.962C1297.86 450.027 1365.55 382.332 1452.58 382.332C1539.61 382.332 1600.88 446.814 1600.88 537.054C1600.88 549.962 1599.6 558.991 1598.94 564.753L1597.66 572.508H1346.22C1353.31 633.777 1398.46 672.443 1452.58 672.443C1491.25 672.443 1523.49 653.719 1539.61 620.869H1591.18ZM1552.51 527.36C1549.3 468.695 1507.37 427.425 1452.58 427.425C1393.91 427.425 1353.31 468.695 1346.22 527.36H1552.51Z" fill="white"/>
<path d="M1639.45 388.758H1681.33L1687.75 424.212H1690.97C1697.39 416.456 1705.15 409.366 1714.79 403.604C1730.91 393.301 1754.78 382.332 1787.63 382.332C1861.75 382.332 1916.59 437.119 1916.59 517.721V711.11H1868.23V517.721C1868.23 466.147 1829.57 427.48 1781.21 427.48C1729.63 427.48 1687.7 469.415 1687.7 517.721V711.11H1639.34V388.758H1639.45Z" fill="white"/>
<path d="M1984.39 433.896H1932.82V388.747H1984.39V298.507H2032.75V388.747H2106.87V433.896H2032.75V646.673C2032.75 659.581 2039.18 666.007 2052.09 666.007H2106.87V711.155H2042.39C2006.27 711.155 1984.39 689.218 1984.39 656.368V433.951V433.896Z" fill="white"/>
<path d="M2151.93 388.775H2200.29V711.127H2151.93V388.775Z" fill="white"/>
<path d="M2261.56 388.756H2303.44L2309.86 424.209H2313.07C2319.5 416.454 2327.26 409.363 2336.89 403.602C2353.02 393.298 2376.89 382.33 2409.74 382.33C2483.86 382.33 2538.7 437.117 2538.7 517.718V711.107H2490.34V517.718C2490.34 466.144 2451.68 427.478 2403.32 427.478C2351.74 427.478 2309.81 469.413 2309.81 517.718V711.107H2261.44V388.756H2261.56Z" fill="white"/>
<path d="M2870.7 620.869C2848.16 682.747 2799.8 717.591 2732.1 717.591C2645.07 717.591 2577.38 649.897 2577.38 549.962C2577.38 450.027 2645.07 382.332 2732.1 382.332C2819.13 382.332 2880.4 446.814 2880.4 537.054C2880.4 549.962 2879.12 558.991 2878.46 564.753L2877.19 572.508H2625.74C2632.83 633.777 2677.98 672.443 2732.1 672.443C2770.77 672.443 2803.01 653.719 2819.13 620.869H2870.7ZM2832.04 527.36C2828.82 468.695 2786.89 427.425 2732.1 427.425C2673.44 427.425 2632.83 468.695 2625.74 527.36H2832.04Z" fill="white"/>
<path d="M2922.28 259.807H2970.64V711.067H2922.28V259.807Z" fill="white"/>
</g>
<defs>
<clipPath id="clip0_595_14">
<rect width="2970.64" height="972" fill="white"/>
</clipPath>
</defs>
</svg>
