<svg width="24" height="22" viewBox="0 0 18 22" fill="none" xmlns="http://www.w3.org/2000/svg">
<path d="M0.78307 1.82598L9 0L17.2169 1.82598C17.6745 1.92766 18 2.33347 18 2.80217V12.7889C18 14.795 16.9974 16.6684 15.3282 17.7812L9 22L2.6718 17.7812C1.00261 16.6684 0 14.795 0 12.7889V2.80217C0 2.33347 0.32553 1.92766 0.78307 1.82598ZM2 3.60434V12.7889C2 14.1263 2.6684 15.3752 3.7812 16.1171L9 19.5963L14.2188 16.1171C15.3316 15.3752 16 14.1263 16 12.7889V3.60434L9 2.04879L2 3.60434Z" fill="#6B7A97"/>
</svg>
