<svg width="142" height="156" viewBox="0 0 142 156" fill="none" xmlns="http://www.w3.org/2000/svg">
    <g filter="url(#filter0_d_1_8987)">
        <path
            d="M60.2731 77.4842L83.8198 53.9375L88.0624 58.1802L83.8198 62.4228L91.2445 69.8474L87.0019 74.09L79.5772 66.6654L75.3346 70.9081L81.6985 77.2721L77.4559 81.5147L71.092 75.1508L64.5157 81.7268C68.3743 87.551 67.738 95.4752 62.6065 100.607C56.7487 106.465 47.2513 106.465 41.3934 100.607C35.5355 94.7486 35.5355 85.2512 41.3934 79.3934C46.5248 74.2619 54.449 73.6256 60.2731 77.4842ZM58.3639 96.3638C61.8787 92.8493 61.8787 87.1508 58.3639 83.636C54.8493 80.1212 49.1508 80.1212 45.636 83.636C42.1213 87.1508 42.1213 92.8493 45.636 96.3638C49.1508 99.8786 54.8493 99.8786 58.3639 96.3638Z"
            fill="#0184FC" />
    </g>
    <defs>
        <filter id="filter0_d_1_8987" x="-26" y="-12" width="180" height="180"
            filterUnits="userSpaceOnUse" color-interpolation-filters="sRGB">
            <feFlood flood-opacity="0" result="BackgroundImageFix" />
            <feColorMatrix in="SourceAlpha" type="matrix"
                values="0 0 0 0 0 0 0 0 0 0 0 0 0 0 0 0 0 0 127 0" result="hardAlpha" />
            <feOffset />
            <feGaussianBlur stdDeviation="21" />
            <feColorMatrix type="matrix"
                values="0 0 0 0 0.00392157 0 0 0 0 0.337255 0 0 0 0 0.988235 0 0 0 1 0" />
            <feBlend mode="normal" in2="BackgroundImageFix" result="effect1_dropShadow_1_8987" />
            <feBlend mode="normal" in="SourceGraphic" in2="effect1_dropShadow_1_8987" result="shape" />
        </filter>
    </defs>
</svg>
    