<svg width="72" height="72" viewBox="0 0 72 72" fill="none" xmlns="http://www.w3.org/2000/svg">
<path d="M32.2731 35.4842L55.8198 11.9375L60.0624 16.1802L55.8198 20.4228L63.2445 27.8474L59.0019 32.09L51.5772 24.6654L47.3346 28.9081L53.6985 35.2721L49.4559 39.5147L43.092 33.1508L36.5157 39.7268C40.3743 45.551 39.738 53.4752 34.6065 58.6067C28.7487 64.4645 19.2513 64.4645 13.3934 58.6067C7.53553 52.7486 7.53553 43.2512 13.3934 37.3934C18.5248 32.2619 26.449 31.6256 32.2731 35.4842ZM30.3639 54.3638C33.8787 50.8493 33.8787 45.1508 30.3639 41.636C26.8493 38.1212 21.1508 38.1212 17.6361 41.636C14.1213 45.1508 14.1213 50.8493 17.6361 54.3638C21.1508 57.8786 26.8493 57.8786 30.3639 54.3638Z" fill="#0184FC"/>
</svg>
