<svg width="24" height="24" viewBox="0 0 24 24" fill="none" xmlns="http://www.w3.org/2000/svg">
<path d="M12 1.99805C17.524 1.99805 22.002 6.47605 22.002 12C22.002 17.523 17.524 22 12 22C6.476 22.001 2 17.523 2 12C1.999 6.47605 6.476 1.99805 12 1.99805ZM14.94 16.5H9.061C9.713 18.915 10.847 20.502 12.001 20.502C13.154 20.502 14.288 18.914 14.94 16.5ZM7.51 16.5H4.785C5.75092 18.0448 7.18594 19.2397 8.88 19.91C8.358 19.09 7.927 18.064 7.61 16.895L7.508 16.5H7.51ZM19.215 16.5H16.493C16.169 17.835 15.701 19 15.12 19.911C16.7068 19.2834 18.0689 18.1941 19.03 16.784L19.215 16.5ZM7.094 10H3.736L3.731 10.017C3.57658 10.6667 3.49905 11.3323 3.5 12C3.4986 13.0247 3.68291 14.0411 4.044 15H7.217C7.07058 14.0068 6.99805 13.004 7 12C7 11.316 7.032 10.646 7.095 9.99905L7.094 10ZM15.397 10H8.603C8.42709 11.6654 8.47249 13.3466 8.738 15H15.262C15.5274 13.3466 15.5728 11.6654 15.397 10ZM20.265 10H16.907C16.969 10.647 17.002 11.317 17.002 12C17.0036 13.0041 16.9308 14.0068 16.784 15H19.957C20.3183 14.0412 20.503 13.0248 20.502 12C20.502 11.311 20.42 10.641 20.265 10ZM8.88 4.08805L8.857 4.09605C6.81005 4.91374 5.15905 6.492 4.25 8.50005H7.298C7.612 6.74805 8.158 5.22205 8.881 4.09005L8.88 4.08805ZM12 3.49705L11.883 3.50205C10.62 3.62005 9.397 5.62105 8.83 8.50005H15.172C14.606 5.63005 13.389 3.63105 12.127 3.50505L12 3.49705ZM15.12 4.08705L15.226 4.26205C15.896 5.37405 16.403 6.83405 16.701 8.49905H19.749C18.8809 6.58313 17.3357 5.05538 15.41 4.20905L15.12 4.08705Z" fill="#6B7A97"/>
</svg>
