<svg width="38" height="48" viewBox="0 0 38 48" fill="none" xmlns="http://www.w3.org/2000/svg">
    <path
        d="M5.00004 5.33317H0.333374V0.666504H37.6667V5.33317H33V9.99984C33 13.7692 31.0956 16.8008 28.6976 19.2787C27.0575 20.9735 25.062 22.5345 23.0388 23.9998C25.062 25.4652 27.0575 27.0262 28.6976 28.7209C31.0956 31.1989 33 34.2306 33 37.9998V42.6665H37.6667V47.3332H0.333374V42.6665H5.00004V37.9998C5.00004 34.2306 6.90441 31.1989 9.30247 28.7209C10.9426 27.0262 12.9381 25.4652 14.9613 23.9998C12.9381 22.5345 10.9426 20.9735 9.30247 19.2787C6.90441 16.8008 5.00004 13.7692 5.00004 9.99984V5.33317ZM9.66671 5.33317V9.99984C9.66671 12.0638 10.679 13.9906 12.6559 16.0334C14.352 17.7861 16.5612 19.426 19 21.1487C21.4388 19.426 23.648 17.7861 25.3441 16.0334C27.3212 13.9906 28.3334 12.0638 28.3334 9.99984V5.33317H9.66671ZM19 26.8509C16.5612 28.5736 14.352 30.2135 12.6559 31.9663C10.679 34.0091 9.66671 35.9358 9.66671 37.9998V42.6665H28.3334V37.9998C28.3334 35.9358 27.3212 34.0091 25.3441 31.9663C23.648 30.2135 21.4388 28.5736 19 26.8509Z"
        fill="#0184FC" />
</svg>